<svg width="12" height="20" viewBox="0 0 12 20" fill="none" xmlns="http://www.w3.org/2000/svg">
<path fill-rule="evenodd" clip-rule="evenodd" d="M11.031 0.469C11.1008 0.538668 11.1563 0.621432 11.1941 0.71255C11.2319 0.803667 11.2513 0.901349 11.2513 1C11.2513 1.09865 11.2319 1.19633 11.1941 1.28745C11.1563 1.37857 11.1008 1.46133 11.031 1.531L2.5605 10L11.031 18.469C11.1007 18.5387 11.156 18.6215 11.1938 18.7126C11.2315 18.8037 11.2509 18.9014 11.2509 19C11.2509 19.0986 11.2315 19.1963 11.1938 19.2874C11.156 19.3785 11.1007 19.4613 11.031 19.531C10.9613 19.6007 10.8785 19.656 10.7874 19.6938C10.6963 19.7315 10.5986 19.7509 10.5 19.7509C10.4014 19.7509 10.3037 19.7315 10.2126 19.6938C10.1215 19.656 10.0387 19.6007 9.969 19.531L0.969002 10.531C0.899158 10.4613 0.843744 10.3786 0.805934 10.2874C0.768125 10.1963 0.748663 10.0987 0.748663 10C0.748663 9.90135 0.768125 9.80367 0.805934 9.71255C0.843744 9.62143 0.899158 9.53867 0.969002 9.469L9.969 0.469C10.0387 0.399155 10.1214 0.343741 10.2126 0.305931C10.3037 0.268121 10.4014 0.248659 10.5 0.248659C10.5987 0.248659 10.6963 0.268121 10.7875 0.305931C10.8786 0.343741 10.9613 0.399155 11.031 0.469Z" fill="white"/>
</svg>
