<svg width="10" height="14" viewBox="0 0 10 14" fill="none" xmlns="http://www.w3.org/2000/svg">
<path d="M4.0188 11.3269L7.71625 6.84317H5.02606L5.51582 3.0017L2.19315 7.8124H4.51837L4.0188 11.3269ZM3.22353 8.93887H1.20088C0.954537 8.93887 0.775431 8.83103 0.663565 8.61537C0.551698 8.3997 0.567276 8.18688 0.710298 7.97692L5.83503 0.557748C5.9091 0.455192 6.0108 0.381475 6.14015 0.336597C6.26949 0.291731 6.39513 0.295792 6.51707 0.348781C6.639 0.398925 6.73714 0.482742 6.8115 0.60023C6.88585 0.717731 6.91777 0.84032 6.90723 0.967998L6.3051 5.7167H8.80595C9.07073 5.7167 9.25885 5.83529 9.37033 6.07247C9.48181 6.30963 9.45265 6.5295 9.28287 6.73207L3.67052 13.5072C3.57978 13.6082 3.47242 13.6753 3.34842 13.7086C3.22442 13.7419 3.10073 13.7262 2.97737 13.6617C2.85117 13.6 2.76029 13.5148 2.70473 13.406C2.64918 13.2973 2.62895 13.1755 2.64405 13.0406L3.22353 8.93887Z" fill="#77818C"/>
</svg>
